<svg viewBox="0 0 1920 625" fill="none" xmlns="http://www.w3.org/2000/svg"><g clip-path="url(#a)"><path fill="#F3F4F6" d="M0 0h1920v625H0z"/><path fill="url(#b)" d="M-20-38h1960v700H-20z"/><path d="M1000 383a12 12 0 0 0 12-12v-72c0-6.5-5.5-12-12-12H896a12 12 0 0 0-12 12v72c0 6.8 5.3 12 12 12h104Zm-88-82c7.5 0 14 6.5 14 14a14 14 0 1 1-14-14Zm-12 66v-12l17.8-17.8c1.2-1.2 3-1.2 4.2 0l14 13.8 33.8-33.8c1.2-1.2 3-1.2 4.2 0l22 21.8v28h-96Z" fill="#F87171"/></g><defs><linearGradient id="b" x1="1422" y1="415" x2="960" y2="-47" gradientUnits="userSpaceOnUse"><stop stop-color="#164E63"/><stop offset=".8" stop-color="#0E7490"/></linearGradient><clipPath id="a"><path fill="#fff" d="M0 0h1920v625H0z"/></clipPath></defs></svg>
